# Tiled2Unity generated file. Do not modify by hand.
# Wavefront file for 'Game-Map2_mesh_0001.obj'

# Vertices (Count = 884)
v 0 -48 0
v -48 -48 0
v -48 0 0
v 0 0 0
v -48 -48 0
v -96 -48 0
v -96 0 0
v -48 0 0
v -96 -48 0
v -144 -48 0
v -144 0 0
v -96 0 0
v -144 -48 0
v -192 -48 0
v -192 0 0
v -144 0 0
v -192 -48 0
v -240 -48 0
v -240 0 0
v -192 0 0
v -240 -48 0
v -288 -48 0
v -288 0 0
v -240 0 0
v -288 -48 0
v -336 -48 0
v -336 0 0
v -288 0 0
v -336 -48 0
v -384 -48 0
v -384 0 0
v -336 0 0
v -384 -48 0
v -432 -48 0
v -432 0 0
v -384 0 0
v -432 -48 0
v -480 -48 0
v -480 0 0
v -432 0 0
v -480 -48 0
v -528 -48 0
v -528 0 0
v -480 0 0
v -528 -48 0
v -576 -48 0
v -576 0 0
v -528 0 0
v -576 -48 0
v -624 -48 0
v -624 0 0
v -576 0 0
v -624 -48 0
v -672 -48 0
v -672 0 0
v -624 0 0
v -672 -48 0
v -720 -48 0
v -720 0 0
v -672 0 0
v -720 -48 0
v -768 -48 0
v -768 0 0
v -720 0 0
v -768 -48 0
v -816 -48 0
v -816 0 0
v -768 0 0
v 0 -96 0
v -48 -96 0
v -48 -48 0
v 0 -48 0
v -48 -96 0
v -96 -96 0
v -96 -48 0
v -48 -48 0
v -96 -96 0
v -144 -96 0
v -144 -48 0
v -96 -48 0
v -144 -96 0
v -192 -96 0
v -192 -48 0
v -144 -48 0
v -192 -96 0
v -240 -96 0
v -240 -48 0
v -192 -48 0
v -240 -96 0
v -288 -96 0
v -288 -48 0
v -240 -48 0
v -288 -96 0
v -336 -96 0
v -336 -48 0
v -288 -48 0
v -336 -96 0
v -384 -96 0
v -384 -48 0
v -336 -48 0
v -384 -96 0
v -432 -96 0
v -432 -48 0
v -384 -48 0
v -432 -96 0
v -480 -96 0
v -480 -48 0
v -432 -48 0
v -480 -96 0
v -528 -96 0
v -528 -48 0
v -480 -48 0
v -528 -96 0
v -576 -96 0
v -576 -48 0
v -528 -48 0
v -576 -96 0
v -624 -96 0
v -624 -48 0
v -576 -48 0
v -624 -96 0
v -672 -96 0
v -672 -48 0
v -624 -48 0
v -672 -96 0
v -720 -96 0
v -720 -48 0
v -672 -48 0
v -720 -96 0
v -768 -96 0
v -768 -48 0
v -720 -48 0
v -768 -96 0
v -816 -96 0
v -816 -48 0
v -768 -48 0
v 0 -144 0
v -48 -144 0
v -48 -96 0
v 0 -96 0
v -48 -144 0
v -96 -144 0
v -96 -96 0
v -48 -96 0
v -96 -144 0
v -144 -144 0
v -144 -96 0
v -96 -96 0
v -144 -144 0
v -192 -144 0
v -192 -96 0
v -144 -96 0
v -192 -144 0
v -240 -144 0
v -240 -96 0
v -192 -96 0
v -240 -144 0
v -288 -144 0
v -288 -96 0
v -240 -96 0
v -288 -144 0
v -336 -144 0
v -336 -96 0
v -288 -96 0
v -336 -144 0
v -384 -144 0
v -384 -96 0
v -336 -96 0
v -384 -144 0
v -432 -144 0
v -432 -96 0
v -384 -96 0
v -432 -144 0
v -480 -144 0
v -480 -96 0
v -432 -96 0
v -480 -144 0
v -528 -144 0
v -528 -96 0
v -480 -96 0
v -528 -144 0
v -576 -144 0
v -576 -96 0
v -528 -96 0
v -576 -144 0
v -624 -144 0
v -624 -96 0
v -576 -96 0
v -624 -144 0
v -672 -144 0
v -672 -96 0
v -624 -96 0
v -672 -144 0
v -720 -144 0
v -720 -96 0
v -672 -96 0
v -720 -144 0
v -768 -144 0
v -768 -96 0
v -720 -96 0
v -768 -144 0
v -816 -144 0
v -816 -96 0
v -768 -96 0
v 0 -192 0
v -48 -192 0
v -48 -144 0
v 0 -144 0
v -48 -192 0
v -96 -192 0
v -96 -144 0
v -48 -144 0
v -96 -192 0
v -144 -192 0
v -144 -144 0
v -96 -144 0
v -144 -192 0
v -192 -192 0
v -192 -144 0
v -144 -144 0
v -192 -192 0
v -240 -192 0
v -240 -144 0
v -192 -144 0
v -240 -192 0
v -288 -192 0
v -288 -144 0
v -240 -144 0
v -288 -192 0
v -336 -192 0
v -336 -144 0
v -288 -144 0
v -336 -192 0
v -384 -192 0
v -384 -144 0
v -336 -144 0
v -384 -192 0
v -432 -192 0
v -432 -144 0
v -384 -144 0
v -432 -192 0
v -480 -192 0
v -480 -144 0
v -432 -144 0
v -480 -192 0
v -528 -192 0
v -528 -144 0
v -480 -144 0
v -528 -192 0
v -576 -192 0
v -576 -144 0
v -528 -144 0
v -576 -192 0
v -624 -192 0
v -624 -144 0
v -576 -144 0
v -624 -192 0
v -672 -192 0
v -672 -144 0
v -624 -144 0
v -672 -192 0
v -720 -192 0
v -720 -144 0
v -672 -144 0
v -720 -192 0
v -768 -192 0
v -768 -144 0
v -720 -144 0
v -768 -192 0
v -816 -192 0
v -816 -144 0
v -768 -144 0
v 0 -240 0
v -48 -240 0
v -48 -192 0
v 0 -192 0
v -48 -240 0
v -96 -240 0
v -96 -192 0
v -48 -192 0
v -96 -240 0
v -144 -240 0
v -144 -192 0
v -96 -192 0
v -144 -240 0
v -192 -240 0
v -192 -192 0
v -144 -192 0
v -192 -240 0
v -240 -240 0
v -240 -192 0
v -192 -192 0
v -240 -240 0
v -288 -240 0
v -288 -192 0
v -240 -192 0
v -288 -240 0
v -336 -240 0
v -336 -192 0
v -288 -192 0
v -336 -240 0
v -384 -240 0
v -384 -192 0
v -336 -192 0
v -384 -240 0
v -432 -240 0
v -432 -192 0
v -384 -192 0
v -432 -240 0
v -480 -240 0
v -480 -192 0
v -432 -192 0
v -480 -240 0
v -528 -240 0
v -528 -192 0
v -480 -192 0
v -528 -240 0
v -576 -240 0
v -576 -192 0
v -528 -192 0
v -576 -240 0
v -624 -240 0
v -624 -192 0
v -576 -192 0
v -624 -240 0
v -672 -240 0
v -672 -192 0
v -624 -192 0
v -672 -240 0
v -720 -240 0
v -720 -192 0
v -672 -192 0
v -720 -240 0
v -768 -240 0
v -768 -192 0
v -720 -192 0
v -768 -240 0
v -816 -240 0
v -816 -192 0
v -768 -192 0
v 0 -288 0
v -48 -288 0
v -48 -240 0
v 0 -240 0
v -48 -288 0
v -96 -288 0
v -96 -240 0
v -48 -240 0
v -96 -288 0
v -144 -288 0
v -144 -240 0
v -96 -240 0
v -144 -288 0
v -192 -288 0
v -192 -240 0
v -144 -240 0
v -192 -288 0
v -240 -288 0
v -240 -240 0
v -192 -240 0
v -240 -288 0
v -288 -288 0
v -288 -240 0
v -240 -240 0
v -288 -288 0
v -336 -288 0
v -336 -240 0
v -288 -240 0
v -336 -288 0
v -384 -288 0
v -384 -240 0
v -336 -240 0
v -384 -288 0
v -432 -288 0
v -432 -240 0
v -384 -240 0
v -432 -288 0
v -480 -288 0
v -480 -240 0
v -432 -240 0
v -480 -288 0
v -528 -288 0
v -528 -240 0
v -480 -240 0
v -528 -288 0
v -576 -288 0
v -576 -240 0
v -528 -240 0
v -576 -288 0
v -624 -288 0
v -624 -240 0
v -576 -240 0
v -624 -288 0
v -672 -288 0
v -672 -240 0
v -624 -240 0
v -672 -288 0
v -720 -288 0
v -720 -240 0
v -672 -240 0
v -720 -288 0
v -768 -288 0
v -768 -240 0
v -720 -240 0
v -768 -288 0
v -816 -288 0
v -816 -240 0
v -768 -240 0
v 0 -336 0
v -48 -336 0
v -48 -288 0
v 0 -288 0
v -48 -336 0
v -96 -336 0
v -96 -288 0
v -48 -288 0
v -96 -336 0
v -144 -336 0
v -144 -288 0
v -96 -288 0
v -144 -336 0
v -192 -336 0
v -192 -288 0
v -144 -288 0
v -192 -336 0
v -240 -336 0
v -240 -288 0
v -192 -288 0
v -240 -336 0
v -288 -336 0
v -288 -288 0
v -240 -288 0
v -288 -336 0
v -336 -336 0
v -336 -288 0
v -288 -288 0
v -336 -336 0
v -384 -336 0
v -384 -288 0
v -336 -288 0
v -384 -336 0
v -432 -336 0
v -432 -288 0
v -384 -288 0
v -432 -336 0
v -480 -336 0
v -480 -288 0
v -432 -288 0
v -480 -336 0
v -528 -336 0
v -528 -288 0
v -480 -288 0
v -528 -336 0
v -576 -336 0
v -576 -288 0
v -528 -288 0
v -576 -336 0
v -624 -336 0
v -624 -288 0
v -576 -288 0
v -624 -336 0
v -672 -336 0
v -672 -288 0
v -624 -288 0
v -672 -336 0
v -720 -336 0
v -720 -288 0
v -672 -288 0
v -720 -336 0
v -768 -336 0
v -768 -288 0
v -720 -288 0
v -768 -336 0
v -816 -336 0
v -816 -288 0
v -768 -288 0
v 0 -384 0
v -48 -384 0
v -48 -336 0
v 0 -336 0
v -48 -384 0
v -96 -384 0
v -96 -336 0
v -48 -336 0
v -96 -384 0
v -144 -384 0
v -144 -336 0
v -96 -336 0
v -144 -384 0
v -192 -384 0
v -192 -336 0
v -144 -336 0
v -192 -384 0
v -240 -384 0
v -240 -336 0
v -192 -336 0
v -240 -384 0
v -288 -384 0
v -288 -336 0
v -240 -336 0
v -288 -384 0
v -336 -384 0
v -336 -336 0
v -288 -336 0
v -336 -384 0
v -384 -384 0
v -384 -336 0
v -336 -336 0
v -384 -384 0
v -432 -384 0
v -432 -336 0
v -384 -336 0
v -432 -384 0
v -480 -384 0
v -480 -336 0
v -432 -336 0
v -480 -384 0
v -528 -384 0
v -528 -336 0
v -480 -336 0
v -528 -384 0
v -576 -384 0
v -576 -336 0
v -528 -336 0
v -576 -384 0
v -624 -384 0
v -624 -336 0
v -576 -336 0
v -624 -384 0
v -672 -384 0
v -672 -336 0
v -624 -336 0
v -672 -384 0
v -720 -384 0
v -720 -336 0
v -672 -336 0
v -720 -384 0
v -768 -384 0
v -768 -336 0
v -720 -336 0
v -768 -384 0
v -816 -384 0
v -816 -336 0
v -768 -336 0
v 0 -432 0
v -48 -432 0
v -48 -384 0
v 0 -384 0
v -48 -432 0
v -96 -432 0
v -96 -384 0
v -48 -384 0
v -96 -432 0
v -144 -432 0
v -144 -384 0
v -96 -384 0
v -144 -432 0
v -192 -432 0
v -192 -384 0
v -144 -384 0
v -192 -432 0
v -240 -432 0
v -240 -384 0
v -192 -384 0
v -240 -432 0
v -288 -432 0
v -288 -384 0
v -240 -384 0
v -288 -432 0
v -336 -432 0
v -336 -384 0
v -288 -384 0
v -336 -432 0
v -384 -432 0
v -384 -384 0
v -336 -384 0
v -384 -432 0
v -432 -432 0
v -432 -384 0
v -384 -384 0
v -432 -432 0
v -480 -432 0
v -480 -384 0
v -432 -384 0
v -480 -432 0
v -528 -432 0
v -528 -384 0
v -480 -384 0
v -528 -432 0
v -576 -432 0
v -576 -384 0
v -528 -384 0
v -576 -432 0
v -624 -432 0
v -624 -384 0
v -576 -384 0
v -624 -432 0
v -672 -432 0
v -672 -384 0
v -624 -384 0
v -672 -432 0
v -720 -432 0
v -720 -384 0
v -672 -384 0
v -720 -432 0
v -768 -432 0
v -768 -384 0
v -720 -384 0
v -768 -432 0
v -816 -432 0
v -816 -384 0
v -768 -384 0
v 0 -480 0
v -48 -480 0
v -48 -432 0
v 0 -432 0
v -48 -480 0
v -96 -480 0
v -96 -432 0
v -48 -432 0
v -96 -480 0
v -144 -480 0
v -144 -432 0
v -96 -432 0
v -144 -480 0
v -192 -480 0
v -192 -432 0
v -144 -432 0
v -192 -480 0
v -240 -480 0
v -240 -432 0
v -192 -432 0
v -240 -480 0
v -288 -480 0
v -288 -432 0
v -240 -432 0
v -288 -480 0
v -336 -480 0
v -336 -432 0
v -288 -432 0
v -336 -480 0
v -384 -480 0
v -384 -432 0
v -336 -432 0
v -384 -480 0
v -432 -480 0
v -432 -432 0
v -384 -432 0
v -432 -480 0
v -480 -480 0
v -480 -432 0
v -432 -432 0
v -480 -480 0
v -528 -480 0
v -528 -432 0
v -480 -432 0
v -528 -480 0
v -576 -480 0
v -576 -432 0
v -528 -432 0
v -576 -480 0
v -624 -480 0
v -624 -432 0
v -576 -432 0
v -624 -480 0
v -672 -480 0
v -672 -432 0
v -624 -432 0
v -672 -480 0
v -720 -480 0
v -720 -432 0
v -672 -432 0
v -720 -480 0
v -768 -480 0
v -768 -432 0
v -720 -432 0
v -768 -480 0
v -816 -480 0
v -816 -432 0
v -768 -432 0
v 0 -528 0
v -48 -528 0
v -48 -480 0
v 0 -480 0
v -48 -528 0
v -96 -528 0
v -96 -480 0
v -48 -480 0
v -96 -528 0
v -144 -528 0
v -144 -480 0
v -96 -480 0
v -144 -528 0
v -192 -528 0
v -192 -480 0
v -144 -480 0
v -192 -528 0
v -240 -528 0
v -240 -480 0
v -192 -480 0
v -240 -528 0
v -288 -528 0
v -288 -480 0
v -240 -480 0
v -288 -528 0
v -336 -528 0
v -336 -480 0
v -288 -480 0
v -336 -528 0
v -384 -528 0
v -384 -480 0
v -336 -480 0
v -384 -528 0
v -432 -528 0
v -432 -480 0
v -384 -480 0
v -432 -528 0
v -480 -528 0
v -480 -480 0
v -432 -480 0
v -480 -528 0
v -528 -528 0
v -528 -480 0
v -480 -480 0
v -528 -528 0
v -576 -528 0
v -576 -480 0
v -528 -480 0
v -576 -528 0
v -624 -528 0
v -624 -480 0
v -576 -480 0
v -624 -528 0
v -672 -528 0
v -672 -480 0
v -624 -480 0
v -672 -528 0
v -720 -528 0
v -720 -480 0
v -672 -480 0
v -720 -528 0
v -768 -528 0
v -768 -480 0
v -720 -480 0
v -768 -528 0
v -816 -528 0
v -816 -480 0
v -768 -480 0
v 0 -576 0
v -48 -576 0
v -48 -528 0
v 0 -528 0
v -48 -576 0
v -96 -576 0
v -96 -528 0
v -48 -528 0
v -96 -576 0
v -144 -576 0
v -144 -528 0
v -96 -528 0
v -144 -576 0
v -192 -576 0
v -192 -528 0
v -144 -528 0
v -192 -576 0
v -240 -576 0
v -240 -528 0
v -192 -528 0
v -240 -576 0
v -288 -576 0
v -288 -528 0
v -240 -528 0
v -288 -576 0
v -336 -576 0
v -336 -528 0
v -288 -528 0
v -336 -576 0
v -384 -576 0
v -384 -528 0
v -336 -528 0
v -384 -576 0
v -432 -576 0
v -432 -528 0
v -384 -528 0
v -432 -576 0
v -480 -576 0
v -480 -528 0
v -432 -528 0
v -480 -576 0
v -528 -576 0
v -528 -528 0
v -480 -528 0
v -528 -576 0
v -576 -576 0
v -576 -528 0
v -528 -528 0
v -576 -576 0
v -624 -576 0
v -624 -528 0
v -576 -528 0
v -624 -576 0
v -672 -576 0
v -672 -528 0
v -624 -528 0
v -672 -576 0
v -720 -576 0
v -720 -528 0
v -672 -528 0
v -720 -576 0
v -768 -576 0
v -768 -528 0
v -720 -528 0
v -768 -576 0
v -816 -576 0
v -816 -528 0
v -768 -528 0
v 0 -624 0
v -48 -624 0
v -48 -576 0
v 0 -576 0
v -48 -624 0
v -96 -624 0
v -96 -576 0
v -48 -576 0
v -96 -624 0
v -144 -624 0
v -144 -576 0
v -96 -576 0
v -144 -624 0
v -192 -624 0
v -192 -576 0
v -144 -576 0
v -192 -624 0
v -240 -624 0
v -240 -576 0
v -192 -576 0
v -240 -624 0
v -288 -624 0
v -288 -576 0
v -240 -576 0
v -288 -624 0
v -336 -624 0
v -336 -576 0
v -288 -576 0
v -336 -624 0
v -384 -624 0
v -384 -576 0
v -336 -576 0
v -384 -624 0
v -432 -624 0
v -432 -576 0
v -384 -576 0
v -432 -624 0
v -480 -624 0
v -480 -576 0
v -432 -576 0
v -480 -624 0
v -528 -624 0
v -528 -576 0
v -480 -576 0
v -528 -624 0
v -576 -624 0
v -576 -576 0
v -528 -576 0
v -576 -624 0
v -624 -624 0
v -624 -576 0
v -576 -576 0
v -624 -624 0
v -672 -624 0
v -672 -576 0
v -624 -576 0
v -672 -624 0
v -720 -624 0
v -720 -576 0
v -672 -576 0
v -720 -624 0
v -768 -624 0
v -768 -576 0
v -720 -576 0
v -768 -624 0
v -816 -624 0
v -816 -576 0
v -768 -576 0

# Texture cooridinates (Count = 12)
vt 0 0.6875
vt 0.125 0.6875
vt 0.125 0.75
vt 0 0.75
vt 0.25 0.6875
vt 0.25 0.75
vt 0 0.625
vt 0.125 0.625
vt 0 0.5625
vt 0.125 0.5625
vt 0.25 0.5625
vt 0.25 0.625

# Normal
vn 0 0 -1

# Mesh description
g Game-Map2_mesh_0001

# Faces
f 1/1/1 2/2/1 3/3/1 4/4/1
f 5/1/1 6/2/1 7/3/1 8/4/1
f 9/1/1 10/2/1 11/3/1 12/4/1
f 13/1/1 14/2/1 15/3/1 16/4/1
f 17/1/1 18/2/1 19/3/1 20/4/1
f 21/1/1 22/2/1 23/3/1 24/4/1
f 25/1/1 26/2/1 27/3/1 28/4/1
f 29/1/1 30/2/1 31/3/1 32/4/1
f 33/1/1 34/2/1 35/3/1 36/4/1
f 37/1/1 38/2/1 39/3/1 40/4/1
f 41/1/1 42/2/1 43/3/1 44/4/1
f 45/1/1 46/2/1 47/3/1 48/4/1
f 49/1/1 50/2/1 51/3/1 52/4/1
f 53/1/1 54/2/1 55/3/1 56/4/1
f 57/1/1 58/2/1 59/3/1 60/4/1
f 61/1/1 62/2/1 63/3/1 64/4/1
f 65/2/1 66/5/1 67/6/1 68/3/1
f 69/7/1 70/8/1 71/2/1 72/1/1
f 73/7/1 74/8/1 75/2/1 76/1/1
f 77/7/1 78/8/1 79/2/1 80/1/1
f 81/7/1 82/8/1 83/2/1 84/1/1
f 85/7/1 86/8/1 87/2/1 88/1/1
f 89/7/1 90/8/1 91/2/1 92/1/1
f 93/7/1 94/8/1 95/2/1 96/1/1
f 97/7/1 98/8/1 99/2/1 100/1/1
f 101/7/1 102/8/1 103/2/1 104/1/1
f 105/7/1 106/8/1 107/2/1 108/1/1
f 109/7/1 110/8/1 111/2/1 112/1/1
f 113/7/1 114/8/1 115/2/1 116/1/1
f 117/7/1 118/8/1 119/2/1 120/1/1
f 121/1/1 122/2/1 123/3/1 124/4/1
f 125/7/1 126/8/1 127/2/1 128/1/1
f 129/1/1 130/2/1 131/3/1 132/4/1
f 133/2/1 134/5/1 135/6/1 136/3/1
f 137/1/1 138/2/1 139/3/1 140/4/1
f 141/1/1 142/2/1 143/3/1 144/4/1
f 145/1/1 146/2/1 147/3/1 148/4/1
f 149/1/1 150/2/1 151/3/1 152/4/1
f 153/1/1 154/2/1 155/3/1 156/4/1
f 157/1/1 158/2/1 159/3/1 160/4/1
f 161/1/1 162/2/1 163/3/1 164/4/1
f 165/1/1 166/2/1 167/3/1 168/4/1
f 169/1/1 170/2/1 171/3/1 172/4/1
f 173/1/1 174/2/1 175/3/1 176/4/1
f 177/1/1 178/2/1 179/3/1 180/4/1
f 181/1/1 182/2/1 183/3/1 184/4/1
f 185/1/1 186/2/1 187/3/1 188/4/1
f 189/1/1 190/2/1 191/3/1 192/4/1
f 193/2/1 194/5/1 195/6/1 196/3/1
f 197/1/1 198/2/1 199/3/1 200/4/1
f 201/2/1 202/5/1 203/6/1 204/3/1
f 205/7/1 206/8/1 207/2/1 208/1/1
f 209/7/1 210/8/1 211/2/1 212/1/1
f 213/7/1 214/8/1 215/2/1 216/1/1
f 217/7/1 218/8/1 219/2/1 220/1/1
f 221/7/1 222/8/1 223/2/1 224/1/1
f 225/7/1 226/8/1 227/2/1 228/1/1
f 229/7/1 230/8/1 231/2/1 232/1/1
f 233/7/1 234/8/1 235/2/1 236/1/1
f 237/7/1 238/8/1 239/2/1 240/1/1
f 241/7/1 242/8/1 243/2/1 244/1/1
f 245/7/1 246/8/1 247/2/1 248/1/1
f 249/7/1 250/8/1 251/2/1 252/1/1
f 253/7/1 254/8/1 255/2/1 256/1/1
f 257/1/1 258/2/1 259/3/1 260/4/1
f 261/2/1 262/5/1 263/6/1 264/3/1
f 265/1/1 266/2/1 267/3/1 268/4/1
f 269/2/1 270/5/1 271/6/1 272/3/1
f 273/9/1 274/10/1 275/8/1 276/7/1
f 277/9/1 278/10/1 279/8/1 280/7/1
f 281/9/1 282/10/1 283/8/1 284/7/1
f 285/1/1 286/2/1 287/3/1 288/4/1
f 289/1/1 290/2/1 291/3/1 292/4/1
f 293/1/1 294/2/1 295/3/1 296/4/1
f 297/1/1 298/2/1 299/3/1 300/4/1
f 301/1/1 302/2/1 303/3/1 304/4/1
f 305/1/1 306/2/1 307/3/1 308/4/1
f 309/1/1 310/2/1 311/3/1 312/4/1
f 313/1/1 314/2/1 315/3/1 316/4/1
f 317/1/1 318/2/1 319/3/1 320/4/1
f 321/2/1 322/5/1 323/6/1 324/3/1
f 325/1/1 326/2/1 327/3/1 328/4/1
f 329/2/1 330/5/1 331/6/1 332/3/1
f 333/1/1 334/2/1 335/3/1 336/4/1
f 337/2/1 338/5/1 339/6/1 340/3/1
f 341/9/1 342/10/1 343/8/1 344/7/1
f 345/10/1 346/11/1 347/12/1 348/8/1
f 349/1/1 350/2/1 351/3/1 352/4/1
f 353/7/1 354/8/1 355/2/1 356/1/1
f 357/7/1 358/8/1 359/2/1 360/1/1
f 361/7/1 362/8/1 363/2/1 364/1/1
f 365/7/1 366/8/1 367/2/1 368/1/1
f 369/7/1 370/8/1 371/2/1 372/1/1
f 373/7/1 374/8/1 375/2/1 376/1/1
f 377/7/1 378/8/1 379/2/1 380/1/1
f 381/7/1 382/8/1 383/2/1 384/1/1
f 385/1/1 386/2/1 387/3/1 388/4/1
f 389/1/1 390/2/1 391/3/1 392/4/1
f 393/1/1 394/2/1 395/3/1 396/4/1
f 397/2/1 398/5/1 399/6/1 400/3/1
f 401/1/1 402/2/1 403/3/1 404/4/1
f 405/2/1 406/5/1 407/6/1 408/3/1
f 409/9/1 410/10/1 411/8/1 412/7/1
f 413/10/1 414/11/1 415/12/1 416/8/1
f 417/7/1 418/8/1 419/2/1 420/1/1
f 421/9/1 422/10/1 423/8/1 424/7/1
f 425/1/1 426/2/1 427/3/1 428/4/1
f 429/1/1 430/2/1 431/3/1 432/4/1
f 433/1/1 434/2/1 435/3/1 436/4/1
f 437/1/1 438/2/1 439/3/1 440/4/1
f 441/1/1 442/2/1 443/3/1 444/4/1
f 445/1/1 446/2/1 447/3/1 448/4/1
f 449/1/1 450/2/1 451/3/1 452/4/1
f 453/1/1 454/2/1 455/3/1 456/4/1
f 457/2/1 458/5/1 459/6/1 460/3/1
f 461/1/1 462/2/1 463/3/1 464/4/1
f 465/2/1 466/5/1 467/6/1 468/3/1
f 469/1/1 470/2/1 471/3/1 472/4/1
f 473/1/1 474/2/1 475/3/1 476/4/1
f 477/9/1 478/10/1 479/8/1 480/7/1
f 481/10/1 482/11/1 483/12/1 484/8/1
f 485/9/1 486/10/1 487/8/1 488/7/1
f 489/9/1 490/10/1 491/8/1 492/7/1
f 493/7/1 494/8/1 495/2/1 496/1/1
f 497/7/1 498/8/1 499/2/1 500/1/1
f 501/7/1 502/8/1 503/2/1 504/1/1
f 505/7/1 506/8/1 507/2/1 508/1/1
f 509/7/1 510/8/1 511/2/1 512/1/1
f 513/7/1 514/8/1 515/2/1 516/1/1
f 517/1/1 518/2/1 519/3/1 520/4/1
f 521/2/1 522/5/1 523/6/1 524/3/1
f 525/2/1 526/5/1 527/6/1 528/3/1
f 529/2/1 530/5/1 531/6/1 532/3/1
f 533/2/1 534/5/1 535/6/1 536/3/1
f 537/1/1 538/2/1 539/3/1 540/4/1
f 541/2/1 542/5/1 543/6/1 544/3/1
f 545/9/1 546/10/1 547/8/1 548/7/1
f 549/10/1 550/11/1 551/12/1 552/8/1
f 553/9/1 554/10/1 555/8/1 556/7/1
f 557/10/1 558/11/1 559/12/1 560/8/1
f 561/9/1 562/10/1 563/8/1 564/7/1
f 565/9/1 566/10/1 567/8/1 568/7/1
f 569/9/1 570/10/1 571/8/1 572/7/1
f 573/1/1 574/2/1 575/3/1 576/4/1
f 577/1/1 578/2/1 579/3/1 580/4/1
f 581/2/1 582/5/1 583/6/1 584/3/1
f 585/2/1 586/5/1 587/6/1 588/3/1
f 589/2/1 590/5/1 591/6/1 592/3/1
f 593/8/1 594/12/1 595/5/1 596/2/1
f 597/2/1 598/5/1 599/6/1 600/3/1
f 601/8/1 602/12/1 603/5/1 604/2/1
f 605/1/1 606/2/1 607/3/1 608/4/1
f 609/2/1 610/5/1 611/6/1 612/3/1
f 613/9/1 614/10/1 615/8/1 616/7/1
f 617/10/1 618/11/1 619/12/1 620/8/1
f 621/9/1 622/10/1 623/8/1 624/7/1
f 625/10/1 626/11/1 627/12/1 628/8/1
f 629/9/1 630/10/1 631/8/1 632/7/1
f 633/10/1 634/11/1 635/12/1 636/8/1
f 637/8/1 638/12/1 639/5/1 640/2/1
f 641/7/1 642/8/1 643/2/1 644/1/1
f 645/7/1 646/8/1 647/2/1 648/1/1
f 649/8/1 650/12/1 651/5/1 652/2/1
f 653/8/1 654/12/1 655/5/1 656/2/1
f 657/8/1 658/12/1 659/5/1 660/2/1
f 661/10/1 662/11/1 663/12/1 664/8/1
f 665/8/1 666/12/1 667/5/1 668/2/1
f 669/10/1 670/11/1 671/12/1 672/8/1
f 673/1/1 674/2/1 675/3/1 676/4/1
f 677/2/1 678/5/1 679/6/1 680/3/1
f 681/9/1 682/10/1 683/8/1 684/7/1
f 685/10/1 686/11/1 687/12/1 688/8/1
f 689/2/1 690/5/1 691/6/1 692/3/1
f 693/9/1 694/10/1 695/8/1 696/7/1
f 697/9/1 698/10/1 699/8/1 700/7/1
f 701/10/1 702/11/1 703/12/1 704/8/1
f 705/10/1 706/11/1 707/12/1 708/8/1
f 709/9/1 710/10/1 711/8/1 712/7/1
f 713/9/1 714/10/1 715/8/1 716/7/1
f 717/10/1 718/11/1 719/12/1 720/8/1
f 721/10/1 722/11/1 723/12/1 724/8/1
f 725/10/1 726/11/1 727/12/1 728/8/1
f 729/10/1 730/11/1 731/12/1 732/8/1
f 733/10/1 734/11/1 735/12/1 736/8/1
f 737/2/1 738/5/1 739/6/1 740/3/1
f 741/2/1 742/5/1 743/6/1 744/3/1
f 745/2/1 746/5/1 747/6/1 748/3/1
f 749/9/1 750/10/1 751/8/1 752/7/1
f 753/10/1 754/11/1 755/12/1 756/8/1
f 757/8/1 758/12/1 759/5/1 760/2/1
f 761/10/1 762/11/1 763/12/1 764/8/1
f 765/10/1 766/11/1 767/12/1 768/8/1
f 769/9/1 770/10/1 771/8/1 772/7/1
f 773/9/1 774/10/1 775/8/1 776/7/1
f 777/10/1 778/11/1 779/12/1 780/8/1
f 781/10/1 782/11/1 783/12/1 784/8/1
f 785/10/1 786/11/1 787/12/1 788/8/1
f 789/10/1 790/11/1 791/12/1 792/8/1
f 793/10/1 794/11/1 795/12/1 796/8/1
f 797/8/1 798/12/1 799/5/1 800/2/1
f 801/8/1 802/12/1 803/5/1 804/2/1
f 805/8/1 806/12/1 807/5/1 808/2/1
f 809/8/1 810/12/1 811/5/1 812/2/1
f 813/8/1 814/12/1 815/5/1 816/2/1
f 817/9/1 818/10/1 819/8/1 820/7/1
f 821/10/1 822/11/1 823/12/1 824/8/1
f 825/10/1 826/11/1 827/12/1 828/8/1
f 829/9/1 830/10/1 831/8/1 832/7/1
f 833/10/1 834/11/1 835/12/1 836/8/1
f 837/10/1 838/11/1 839/12/1 840/8/1
f 841/10/1 842/11/1 843/12/1 844/8/1
f 845/10/1 846/11/1 847/12/1 848/8/1
f 849/10/1 850/11/1 851/12/1 852/8/1
f 853/10/1 854/11/1 855/12/1 856/8/1
f 857/9/1 858/10/1 859/8/1 860/7/1
f 861/10/1 862/11/1 863/12/1 864/8/1
f 865/10/1 866/11/1 867/12/1 868/8/1
f 869/10/1 870/11/1 871/12/1 872/8/1
f 873/10/1 874/11/1 875/12/1 876/8/1
f 877/10/1 878/11/1 879/12/1 880/8/1
f 881/10/1 882/11/1 883/12/1 884/8/1

