# Tiled2Unity generated file. Do not modify by hand.
# Wavefront file for 'Game-Map2_mesh_0002.obj'

# Vertices (Count = 272)
v 0 -48 0
v -48 -48 0
v -48 0 0
v 0 0 0
v -48 -48 0
v -96 -48 0
v -96 0 0
v -48 0 0
v -96 -48 0
v -144 -48 0
v -144 0 0
v -96 0 0
v -144 -48 0
v -192 -48 0
v -192 0 0
v -144 0 0
v -192 -48 0
v -240 -48 0
v -240 0 0
v -192 0 0
v -240 -48 0
v -288 -48 0
v -288 0 0
v -240 0 0
v -288 -48 0
v -336 -48 0
v -336 0 0
v -288 0 0
v -336 -48 0
v -384 -48 0
v -384 0 0
v -336 0 0
v -384 -48 0
v -432 -48 0
v -432 0 0
v -384 0 0
v -432 -48 0
v -480 -48 0
v -480 0 0
v -432 0 0
v -480 -48 0
v -528 -48 0
v -528 0 0
v -480 0 0
v -528 -48 0
v -576 -48 0
v -576 0 0
v -528 0 0
v -576 -48 0
v -624 -48 0
v -624 0 0
v -576 0 0
v -624 -48 0
v -672 -48 0
v -672 0 0
v -624 0 0
v -672 -48 0
v -720 -48 0
v -720 0 0
v -672 0 0
v -720 -48 0
v -768 -48 0
v -768 0 0
v -720 0 0
v -768 -48 0
v -816 -48 0
v -816 0 0
v -768 0 0
v 0 -96 0
v -48 -96 0
v -48 -48 0
v 0 -48 0
v -48 -96 0
v -96 -96 0
v -96 -48 0
v -48 -48 0
v -96 -96 0
v -144 -96 0
v -144 -48 0
v -96 -48 0
v -144 -96 0
v -192 -96 0
v -192 -48 0
v -144 -48 0
v -192 -96 0
v -240 -96 0
v -240 -48 0
v -192 -48 0
v -240 -96 0
v -288 -96 0
v -288 -48 0
v -240 -48 0
v -288 -96 0
v -336 -96 0
v -336 -48 0
v -288 -48 0
v -336 -96 0
v -384 -96 0
v -384 -48 0
v -336 -48 0
v -384 -96 0
v -432 -96 0
v -432 -48 0
v -384 -48 0
v -432 -96 0
v -480 -96 0
v -480 -48 0
v -432 -48 0
v -480 -96 0
v -528 -96 0
v -528 -48 0
v -480 -48 0
v -528 -96 0
v -576 -96 0
v -576 -48 0
v -528 -48 0
v -576 -96 0
v -624 -96 0
v -624 -48 0
v -576 -48 0
v -624 -96 0
v -672 -96 0
v -672 -48 0
v -624 -48 0
v -672 -96 0
v -720 -96 0
v -720 -48 0
v -672 -48 0
v -720 -96 0
v -768 -96 0
v -768 -48 0
v -720 -48 0
v -768 -96 0
v -816 -96 0
v -816 -48 0
v -768 -48 0
v 0 -144 0
v -48 -144 0
v -48 -96 0
v 0 -96 0
v -48 -144 0
v -96 -144 0
v -96 -96 0
v -48 -96 0
v -96 -144 0
v -144 -144 0
v -144 -96 0
v -96 -96 0
v -144 -144 0
v -192 -144 0
v -192 -96 0
v -144 -96 0
v -192 -144 0
v -240 -144 0
v -240 -96 0
v -192 -96 0
v -240 -144 0
v -288 -144 0
v -288 -96 0
v -240 -96 0
v -288 -144 0
v -336 -144 0
v -336 -96 0
v -288 -96 0
v -336 -144 0
v -384 -144 0
v -384 -96 0
v -336 -96 0
v -384 -144 0
v -432 -144 0
v -432 -96 0
v -384 -96 0
v -432 -144 0
v -480 -144 0
v -480 -96 0
v -432 -96 0
v -480 -144 0
v -528 -144 0
v -528 -96 0
v -480 -96 0
v -528 -144 0
v -576 -144 0
v -576 -96 0
v -528 -96 0
v -576 -144 0
v -624 -144 0
v -624 -96 0
v -576 -96 0
v -624 -144 0
v -672 -144 0
v -672 -96 0
v -624 -96 0
v -672 -144 0
v -720 -144 0
v -720 -96 0
v -672 -96 0
v -720 -144 0
v -768 -144 0
v -768 -96 0
v -720 -96 0
v -768 -144 0
v -816 -144 0
v -816 -96 0
v -768 -96 0
v 0 -192 0
v -48 -192 0
v -48 -144 0
v 0 -144 0
v -48 -192 0
v -96 -192 0
v -96 -144 0
v -48 -144 0
v -96 -192 0
v -144 -192 0
v -144 -144 0
v -96 -144 0
v -144 -192 0
v -192 -192 0
v -192 -144 0
v -144 -144 0
v -192 -192 0
v -240 -192 0
v -240 -144 0
v -192 -144 0
v -240 -192 0
v -288 -192 0
v -288 -144 0
v -240 -144 0
v -288 -192 0
v -336 -192 0
v -336 -144 0
v -288 -144 0
v -336 -192 0
v -384 -192 0
v -384 -144 0
v -336 -144 0
v -384 -192 0
v -432 -192 0
v -432 -144 0
v -384 -144 0
v -432 -192 0
v -480 -192 0
v -480 -144 0
v -432 -144 0
v -480 -192 0
v -528 -192 0
v -528 -144 0
v -480 -144 0
v -528 -192 0
v -576 -192 0
v -576 -144 0
v -528 -144 0
v -576 -192 0
v -624 -192 0
v -624 -144 0
v -576 -144 0
v -624 -192 0
v -672 -192 0
v -672 -144 0
v -624 -144 0
v -672 -192 0
v -720 -192 0
v -720 -144 0
v -672 -144 0
v -720 -192 0
v -768 -192 0
v -768 -144 0
v -720 -144 0
v -768 -192 0
v -816 -192 0
v -816 -144 0
v -768 -144 0

# Texture cooridinates (Count = 25)
vt 0.122449 0.9375
vt 0.244898 0.9375
vt 0.244898 1
vt 0.122449 1
vt 0.3673469 0.9375
vt 0.3673469 1
vt 0.4897959 0.9375
vt 0.4897959 1
vt 0 0.9375
vt 0 1
vt 0.122449 0.875
vt 0.244898 0.875
vt 0.3673469 0.875
vt 0.4897959 0.875
vt 0 0.875
vt 0.122449 0.8125
vt 0.244898 0.8125
vt 0.3673469 0.8125
vt 0.4897959 0.8125
vt 0 0.8125
vt 0.122449 0.75
vt 0.244898 0.75
vt 0.3673469 0.75
vt 0.4897959 0.75
vt 0 0.75

# Normal
vn 0 0 -1

# Mesh description
g Game-Map2_mesh_0002

# Faces
f 1/1/1 2/2/1 3/3/1 4/4/1
f 5/2/1 6/5/1 7/6/1 8/3/1
f 9/5/1 10/7/1 11/8/1 12/6/1
f 13/9/1 14/1/1 15/4/1 16/10/1
f 17/1/1 18/2/1 19/3/1 20/4/1
f 21/9/1 22/1/1 23/4/1 24/10/1
f 25/1/1 26/2/1 27/3/1 28/4/1
f 29/2/1 30/5/1 31/6/1 32/3/1
f 33/5/1 34/7/1 35/8/1 36/6/1
f 37/9/1 38/1/1 39/4/1 40/10/1
f 41/1/1 42/2/1 43/3/1 44/4/1
f 45/9/1 46/1/1 47/4/1 48/10/1
f 49/1/1 50/2/1 51/3/1 52/4/1
f 53/9/1 54/1/1 55/4/1 56/10/1
f 57/1/1 58/2/1 59/3/1 60/4/1
f 61/2/1 62/5/1 63/6/1 64/3/1
f 65/5/1 66/7/1 67/8/1 68/6/1
f 69/11/1 70/12/1 71/2/1 72/1/1
f 73/12/1 74/13/1 75/5/1 76/2/1
f 77/13/1 78/14/1 79/7/1 80/5/1
f 81/15/1 82/11/1 83/1/1 84/9/1
f 85/11/1 86/12/1 87/2/1 88/1/1
f 89/15/1 90/11/1 91/1/1 92/9/1
f 93/11/1 94/12/1 95/2/1 96/1/1
f 97/12/1 98/13/1 99/5/1 100/2/1
f 101/13/1 102/14/1 103/7/1 104/5/1
f 105/15/1 106/11/1 107/1/1 108/9/1
f 109/11/1 110/12/1 111/2/1 112/1/1
f 113/15/1 114/11/1 115/1/1 116/9/1
f 117/11/1 118/12/1 119/2/1 120/1/1
f 121/15/1 122/11/1 123/1/1 124/9/1
f 125/11/1 126/12/1 127/2/1 128/1/1
f 129/12/1 130/13/1 131/5/1 132/2/1
f 133/13/1 134/14/1 135/7/1 136/5/1
f 137/16/1 138/17/1 139/12/1 140/11/1
f 141/17/1 142/18/1 143/13/1 144/12/1
f 145/18/1 146/19/1 147/14/1 148/13/1
f 149/20/1 150/16/1 151/11/1 152/15/1
f 153/16/1 154/17/1 155/12/1 156/11/1
f 157/20/1 158/16/1 159/11/1 160/15/1
f 161/16/1 162/17/1 163/12/1 164/11/1
f 165/17/1 166/18/1 167/13/1 168/12/1
f 169/18/1 170/19/1 171/14/1 172/13/1
f 173/20/1 174/16/1 175/11/1 176/15/1
f 177/16/1 178/17/1 179/12/1 180/11/1
f 181/20/1 182/16/1 183/11/1 184/15/1
f 185/16/1 186/17/1 187/12/1 188/11/1
f 189/20/1 190/16/1 191/11/1 192/15/1
f 193/16/1 194/17/1 195/12/1 196/11/1
f 197/17/1 198/18/1 199/13/1 200/12/1
f 201/18/1 202/19/1 203/14/1 204/13/1
f 205/21/1 206/22/1 207/17/1 208/16/1
f 209/22/1 210/23/1 211/18/1 212/17/1
f 213/23/1 214/24/1 215/19/1 216/18/1
f 217/25/1 218/21/1 219/16/1 220/20/1
f 221/21/1 222/22/1 223/17/1 224/16/1
f 225/25/1 226/21/1 227/16/1 228/20/1
f 229/21/1 230/22/1 231/17/1 232/16/1
f 233/22/1 234/23/1 235/18/1 236/17/1
f 237/23/1 238/24/1 239/19/1 240/18/1
f 241/25/1 242/21/1 243/16/1 244/20/1
f 245/21/1 246/22/1 247/17/1 248/16/1
f 249/25/1 250/21/1 251/16/1 252/20/1
f 253/21/1 254/22/1 255/17/1 256/16/1
f 257/25/1 258/21/1 259/16/1 260/20/1
f 261/21/1 262/22/1 263/17/1 264/16/1
f 265/22/1 266/23/1 267/18/1 268/17/1
f 269/23/1 270/24/1 271/19/1 272/18/1

