# Tiled2Unity generated file. Do not modify by hand.
# Wavefront file for 'Test-A_mesh_0002.obj'

# Vertices (Count = 252)
v -672 -48 0
v -720 -48 0
v -720 0 0
v -672 0 0
v -96 -96 0
v -144 -96 0
v -144 -48 0
v -96 -48 0
v -144 -96 0
v -192 -96 0
v -192 -48 0
v -144 -48 0
v -192 -96 0
v -240 -96 0
v -240 -48 0
v -192 -48 0
v -96 -144 0
v -144 -144 0
v -144 -96 0
v -96 -96 0
v -144 -144 0
v -192 -144 0
v -192 -96 0
v -144 -96 0
v -192 -144 0
v -240 -144 0
v -240 -96 0
v -192 -96 0
v -576 -144 0
v -624 -144 0
v -624 -96 0
v -576 -96 0
v -624 -144 0
v -672 -144 0
v -672 -96 0
v -624 -96 0
v -672 -144 0
v -720 -144 0
v -720 -96 0
v -672 -96 0
v -96 -192 0
v -144 -192 0
v -144 -144 0
v -96 -144 0
v -144 -192 0
v -192 -192 0
v -192 -144 0
v -144 -144 0
v -192 -192 0
v -240 -192 0
v -240 -144 0
v -192 -144 0
v -336 -192 0
v -384 -192 0
v -384 -144 0
v -336 -144 0
v -576 -192 0
v -624 -192 0
v -624 -144 0
v -576 -144 0
v -624 -192 0
v -672 -192 0
v -672 -144 0
v -624 -144 0
v -672 -192 0
v -720 -192 0
v -720 -144 0
v -672 -144 0
v -96 -240 0
v -144 -240 0
v -144 -192 0
v -96 -192 0
v -144 -240 0
v -192 -240 0
v -192 -192 0
v -144 -192 0
v -192 -240 0
v -240 -240 0
v -240 -192 0
v -192 -192 0
v -576 -240 0
v -624 -240 0
v -624 -192 0
v -576 -192 0
v -624 -240 0
v -672 -240 0
v -672 -192 0
v -624 -192 0
v -672 -240 0
v -720 -240 0
v -720 -192 0
v -672 -192 0
v -576 -288 0
v -624 -288 0
v -624 -240 0
v -576 -240 0
v -624 -288 0
v -672 -288 0
v -672 -240 0
v -624 -240 0
v -672 -288 0
v -720 -288 0
v -720 -240 0
v -672 -240 0
v -288 -336 0
v -336 -336 0
v -336 -288 0
v -288 -288 0
v 0 -384 0
v -48 -384 0
v -48 -336 0
v 0 -336 0
v -48 -384 0
v -96 -384 0
v -96 -336 0
v -48 -336 0
v -96 -384 0
v -144 -384 0
v -144 -336 0
v -96 -336 0
v 0 -432 0
v -48 -432 0
v -48 -384 0
v 0 -384 0
v -48 -432 0
v -96 -432 0
v -96 -384 0
v -48 -384 0
v -96 -432 0
v -144 -432 0
v -144 -384 0
v -96 -384 0
v -624 -432 0
v -672 -432 0
v -672 -384 0
v -624 -384 0
v -720 -432 0
v -768 -432 0
v -768 -384 0
v -720 -384 0
v -768 -432 0
v -816 -432 0
v -816 -384 0
v -768 -384 0
v 0 -480 0
v -48 -480 0
v -48 -432 0
v 0 -432 0
v -48 -480 0
v -96 -480 0
v -96 -432 0
v -48 -432 0
v -96 -480 0
v -144 -480 0
v -144 -432 0
v -96 -432 0
v -720 -480 0
v -768 -480 0
v -768 -432 0
v -720 -432 0
v -768 -480 0
v -816 -480 0
v -816 -432 0
v -768 -432 0
v 0 -528 0
v -48 -528 0
v -48 -480 0
v 0 -480 0
v -48 -528 0
v -96 -528 0
v -96 -480 0
v -48 -480 0
v -96 -528 0
v -144 -528 0
v -144 -480 0
v -96 -480 0
v -240 -528 0
v -288 -528 0
v -288 -480 0
v -240 -480 0
v -288 -528 0
v -336 -528 0
v -336 -480 0
v -288 -480 0
v -336 -528 0
v -384 -528 0
v -384 -480 0
v -336 -480 0
v -720 -528 0
v -768 -528 0
v -768 -480 0
v -720 -480 0
v -768 -528 0
v -816 -528 0
v -816 -480 0
v -768 -480 0
v -240 -576 0
v -288 -576 0
v -288 -528 0
v -240 -528 0
v -288 -576 0
v -336 -576 0
v -336 -528 0
v -288 -528 0
v -336 -576 0
v -384 -576 0
v -384 -528 0
v -336 -528 0
v -480 -576 0
v -528 -576 0
v -528 -528 0
v -480 -528 0
v -528 -576 0
v -576 -576 0
v -576 -528 0
v -528 -528 0
v -576 -576 0
v -624 -576 0
v -624 -528 0
v -576 -528 0
v -720 -576 0
v -768 -576 0
v -768 -528 0
v -720 -528 0
v -768 -576 0
v -816 -576 0
v -816 -528 0
v -768 -528 0
v -240 -624 0
v -288 -624 0
v -288 -576 0
v -240 -576 0
v -288 -624 0
v -336 -624 0
v -336 -576 0
v -288 -576 0
v -336 -624 0
v -384 -624 0
v -384 -576 0
v -336 -576 0
v -480 -624 0
v -528 -624 0
v -528 -576 0
v -480 -576 0
v -528 -624 0
v -576 -624 0
v -576 -576 0
v -528 -576 0
v -576 -624 0
v -624 -624 0
v -624 -576 0
v -576 -576 0

# Texture cooridinates (Count = 55)
vt 0.375 0.5625
vt 0.4375 0.5625
vt 0.4375 0.625
vt 0.375 0.625
vt 0 0.9375
vt 0.0625 0.9375
vt 0.0625 1
vt 0 1
vt 0.125 0.9375
vt 0.125 1
vt 0.1875 0.9375
vt 0.1875 1
vt 0 0.875
vt 0.0625 0.875
vt 0.125 0.875
vt 0.1875 0.875
vt 0 0.8125
vt 0.0625 0.8125
vt 0.125 0.8125
vt 0.1875 0.8125
vt 0.5 0.875
vt 0.5625 0.875
vt 0.5625 0.9375
vt 0.5 0.9375
vt 0 0.75
vt 0.0625 0.75
vt 0.125 0.75
vt 0.1875 0.75
vt 0.5 0.625
vt 0.5 0.6875
vt 0.4375 0.6875
vt 0.5 0.75
vt 0.4375 0.75
vt 0.25 0.9375
vt 0.25 1
vt 0.3125 0.9375
vt 0.3125 1
vt 0.25 0.875
vt 0.3125 0.875
vt 0.375 0.9375
vt 0.375 1
vt 0.25 0.8125
vt 0.3125 0.8125
vt 0.375 0.875
vt 0 0.6875
vt 0.0625 0.6875
vt 0.125 0.6875
vt 0.1875 0.6875
vt 0.25 0.75
vt 0.3125 0.75
vt 0.375 0.8125
vt 0 0.625
vt 0.0625 0.625
vt 0.125 0.625
vt 0.1875 0.625

# Normal
vn 0 0 -1

# Mesh description
g Test-A_mesh_0002

# Faces
f 1/1/1 2/2/1 3/3/1 4/4/1
f 5/5/1 6/6/1 7/7/1 8/8/1
f 9/6/1 10/9/1 11/10/1 12/7/1
f 13/9/1 14/11/1 15/12/1 16/10/1
f 17/13/1 18/14/1 19/6/1 20/5/1
f 21/14/1 22/15/1 23/9/1 24/6/1
f 25/15/1 26/16/1 27/11/1 28/9/1
f 29/5/1 30/6/1 31/7/1 32/8/1
f 33/6/1 34/9/1 35/10/1 36/7/1
f 37/9/1 38/11/1 39/12/1 40/10/1
f 41/17/1 42/18/1 43/14/1 44/13/1
f 45/18/1 46/19/1 47/15/1 48/14/1
f 49/19/1 50/20/1 51/16/1 52/15/1
f 53/21/1 54/22/1 55/23/1 56/24/1
f 57/13/1 58/14/1 59/6/1 60/5/1
f 61/14/1 62/15/1 63/9/1 64/6/1
f 65/15/1 66/16/1 67/11/1 68/9/1
f 69/25/1 70/26/1 71/18/1 72/17/1
f 73/26/1 74/27/1 75/19/1 76/18/1
f 77/27/1 78/28/1 79/20/1 80/19/1
f 81/17/1 82/18/1 83/14/1 84/13/1
f 85/18/1 86/19/1 87/15/1 88/14/1
f 89/19/1 90/20/1 91/16/1 92/15/1
f 93/25/1 94/26/1 95/18/1 96/17/1
f 97/26/1 98/27/1 99/19/1 100/18/1
f 101/27/1 102/28/1 103/20/1 104/19/1
f 105/3/1 106/29/1 107/30/1 108/31/1
f 109/5/1 110/6/1 111/7/1 112/8/1
f 113/6/1 114/9/1 115/10/1 116/7/1
f 117/9/1 118/11/1 119/12/1 120/10/1
f 121/13/1 122/14/1 123/6/1 124/5/1
f 125/14/1 126/15/1 127/9/1 128/6/1
f 129/15/1 130/16/1 131/11/1 132/9/1
f 133/31/1 134/30/1 135/32/1 136/33/1
f 137/11/1 138/34/1 139/35/1 140/12/1
f 141/34/1 142/36/1 143/37/1 144/35/1
f 145/17/1 146/18/1 147/14/1 148/13/1
f 149/18/1 150/19/1 151/15/1 152/14/1
f 153/19/1 154/20/1 155/16/1 156/15/1
f 157/16/1 158/38/1 159/34/1 160/11/1
f 161/38/1 162/39/1 163/36/1 164/34/1
f 165/25/1 166/26/1 167/18/1 168/17/1
f 169/26/1 170/27/1 171/19/1 172/18/1
f 173/27/1 174/28/1 175/20/1 176/19/1
f 177/11/1 178/34/1 179/35/1 180/12/1
f 181/34/1 182/36/1 183/37/1 184/35/1
f 185/36/1 186/40/1 187/41/1 188/37/1
f 189/20/1 190/42/1 191/38/1 192/16/1
f 193/42/1 194/43/1 195/39/1 196/38/1
f 197/16/1 198/38/1 199/34/1 200/11/1
f 201/38/1 202/39/1 203/36/1 204/34/1
f 205/39/1 206/44/1 207/40/1 208/36/1
f 209/45/1 210/46/1 211/26/1 212/25/1
f 213/46/1 214/47/1 215/27/1 216/26/1
f 217/47/1 218/48/1 219/28/1 220/27/1
f 221/28/1 222/49/1 223/42/1 224/20/1
f 225/49/1 226/50/1 227/43/1 228/42/1
f 229/20/1 230/42/1 231/38/1 232/16/1
f 233/42/1 234/43/1 235/39/1 236/38/1
f 237/43/1 238/51/1 239/44/1 240/39/1
f 241/52/1 242/53/1 243/46/1 244/45/1
f 245/53/1 246/54/1 247/47/1 248/46/1
f 249/54/1 250/55/1 251/48/1 252/47/1

