# Tiled2Unity generated file. Do not modify by hand.
# Wavefront file for 'Game-Map_mesh_0002.obj'

# Vertices (Count = 268)
v -96 -96 0
v -144 -96 0
v -144 -48 0
v -96 -48 0
v -144 -96 0
v -192 -96 0
v -192 -48 0
v -144 -48 0
v -192 -96 0
v -240 -96 0
v -240 -48 0
v -192 -48 0
v -720 -96 0
v -768 -96 0
v -768 -48 0
v -720 -48 0
v -96 -144 0
v -144 -144 0
v -144 -96 0
v -96 -96 0
v -144 -144 0
v -192 -144 0
v -192 -96 0
v -144 -96 0
v -192 -144 0
v -240 -144 0
v -240 -96 0
v -192 -96 0
v -528 -144 0
v -576 -144 0
v -576 -96 0
v -528 -96 0
v -576 -144 0
v -624 -144 0
v -624 -96 0
v -576 -96 0
v -624 -144 0
v -672 -144 0
v -672 -96 0
v -624 -96 0
v -672 -144 0
v -720 -144 0
v -720 -96 0
v -672 -96 0
v -96 -192 0
v -144 -192 0
v -144 -144 0
v -96 -144 0
v -144 -192 0
v -192 -192 0
v -192 -144 0
v -144 -144 0
v -192 -192 0
v -240 -192 0
v -240 -144 0
v -192 -144 0
v -336 -192 0
v -384 -192 0
v -384 -144 0
v -336 -144 0
v -576 -192 0
v -624 -192 0
v -624 -144 0
v -576 -144 0
v -624 -192 0
v -672 -192 0
v -672 -144 0
v -624 -144 0
v -672 -192 0
v -720 -192 0
v -720 -144 0
v -672 -144 0
v -48 -240 0
v -96 -240 0
v -96 -192 0
v -48 -192 0
v -96 -240 0
v -144 -240 0
v -144 -192 0
v -96 -192 0
v -144 -240 0
v -192 -240 0
v -192 -192 0
v -144 -192 0
v -192 -240 0
v -240 -240 0
v -240 -192 0
v -192 -192 0
v -576 -240 0
v -624 -240 0
v -624 -192 0
v -576 -192 0
v -624 -240 0
v -672 -240 0
v -672 -192 0
v -624 -192 0
v -672 -240 0
v -720 -240 0
v -720 -192 0
v -672 -192 0
v -576 -288 0
v -624 -288 0
v -624 -240 0
v -576 -240 0
v -624 -288 0
v -672 -288 0
v -672 -240 0
v -624 -240 0
v -672 -288 0
v -720 -288 0
v -720 -240 0
v -672 -240 0
v -144 -336 0
v -192 -336 0
v -192 -288 0
v -144 -288 0
v 0 -384 0
v -48 -384 0
v -48 -336 0
v 0 -336 0
v -48 -384 0
v -96 -384 0
v -96 -336 0
v -48 -336 0
v -96 -384 0
v -144 -384 0
v -144 -336 0
v -96 -336 0
v 0 -432 0
v -48 -432 0
v -48 -384 0
v 0 -384 0
v -48 -432 0
v -96 -432 0
v -96 -384 0
v -48 -384 0
v -96 -432 0
v -144 -432 0
v -144 -384 0
v -96 -384 0
v -384 -432 0
v -432 -432 0
v -432 -384 0
v -384 -384 0
v -576 -432 0
v -624 -432 0
v -624 -384 0
v -576 -384 0
v -720 -432 0
v -768 -432 0
v -768 -384 0
v -720 -384 0
v -768 -432 0
v -816 -432 0
v -816 -384 0
v -768 -384 0
v 0 -480 0
v -48 -480 0
v -48 -432 0
v 0 -432 0
v -48 -480 0
v -96 -480 0
v -96 -432 0
v -48 -432 0
v -96 -480 0
v -144 -480 0
v -144 -432 0
v -96 -432 0
v -240 -480 0
v -288 -480 0
v -288 -432 0
v -240 -432 0
v -720 -480 0
v -768 -480 0
v -768 -432 0
v -720 -432 0
v -768 -480 0
v -816 -480 0
v -816 -432 0
v -768 -432 0
v 0 -528 0
v -48 -528 0
v -48 -480 0
v 0 -480 0
v -48 -528 0
v -96 -528 0
v -96 -480 0
v -48 -480 0
v -96 -528 0
v -144 -528 0
v -144 -480 0
v -96 -480 0
v -192 -528 0
v -240 -528 0
v -240 -480 0
v -192 -480 0
v -240 -528 0
v -288 -528 0
v -288 -480 0
v -240 -480 0
v -288 -528 0
v -336 -528 0
v -336 -480 0
v -288 -480 0
v -720 -528 0
v -768 -528 0
v -768 -480 0
v -720 -480 0
v -768 -528 0
v -816 -528 0
v -816 -480 0
v -768 -480 0
v -192 -576 0
v -240 -576 0
v -240 -528 0
v -192 -528 0
v -240 -576 0
v -288 -576 0
v -288 -528 0
v -240 -528 0
v -288 -576 0
v -336 -576 0
v -336 -528 0
v -288 -528 0
v -480 -576 0
v -528 -576 0
v -528 -528 0
v -480 -528 0
v -528 -576 0
v -576 -576 0
v -576 -528 0
v -528 -528 0
v -576 -576 0
v -624 -576 0
v -624 -528 0
v -576 -528 0
v -720 -576 0
v -768 -576 0
v -768 -528 0
v -720 -528 0
v -768 -576 0
v -816 -576 0
v -816 -528 0
v -768 -528 0
v -192 -624 0
v -240 -624 0
v -240 -576 0
v -192 -576 0
v -240 -624 0
v -288 -624 0
v -288 -576 0
v -240 -576 0
v -288 -624 0
v -336 -624 0
v -336 -576 0
v -288 -576 0
v -480 -624 0
v -528 -624 0
v -528 -576 0
v -480 -576 0
v -528 -624 0
v -576 -624 0
v -576 -576 0
v -528 -576 0
v -576 -624 0
v -624 -624 0
v -624 -576 0
v -576 -576 0

# Texture cooridinates (Count = 64)
vt 0 0.9375
vt 0.0625 0.9375
vt 0.0625 1
vt 0 1
vt 0.125 0.9375
vt 0.125 1
vt 0.1875 0.9375
vt 0.1875 1
vt 0.4375 0.6875
vt 0.5 0.6875
vt 0.5 0.75
vt 0.4375 0.75
vt 0 0.875
vt 0.0625 0.875
vt 0.125 0.875
vt 0.1875 0.875
vt 0.375 0.5
vt 0.4375 0.5
vt 0.4375 0.5625
vt 0.375 0.5625
vt 0 0.8125
vt 0.0625 0.8125
vt 0.125 0.8125
vt 0.1875 0.8125
vt 0.5 0.875
vt 0.5625 0.875
vt 0.5625 0.9375
vt 0.5 0.9375
vt 0.375 0.0625
vt 0.4375 0.0625
vt 0.4375 0.125
vt 0.375 0.125
vt 0 0.75
vt 0.0625 0.75
vt 0.125 0.75
vt 0.1875 0.75
vt 0.5 0.5
vt 0.5 0.5625
vt 0.25 0.9375
vt 0.25 1
vt 0.3125 0.9375
vt 0.3125 1
vt 0.4375 0.25
vt 0.5 0.25
vt 0.5 0.3125
vt 0.4375 0.3125
vt 0.25 0.875
vt 0.3125 0.875
vt 0 0.6875
vt 0.0625 0.6875
vt 0.125 0.6875
vt 0.1875 0.6875
vt 0.25 0.8125
vt 0.3125 0.8125
vt 0 0.625
vt 0.0625 0.625
vt 0.125 0.625
vt 0.1875 0.625
vt 0.25 0.75
vt 0.3125 0.75
vt 0 0.5625
vt 0.0625 0.5625
vt 0.125 0.5625
vt 0.1875 0.5625

# Normal
vn 0 0 -1

# Mesh description
g Game-Map_mesh_0002

# Faces
f 1/1/1 2/2/1 3/3/1 4/4/1
f 5/2/1 6/5/1 7/6/1 8/3/1
f 9/5/1 10/7/1 11/8/1 12/6/1
f 13/9/1 14/10/1 15/11/1 16/12/1
f 17/13/1 18/14/1 19/2/1 20/1/1
f 21/14/1 22/15/1 23/5/1 24/2/1
f 25/15/1 26/16/1 27/7/1 28/5/1
f 29/17/1 30/18/1 31/19/1 32/20/1
f 33/1/1 34/2/1 35/3/1 36/4/1
f 37/2/1 38/5/1 39/6/1 40/3/1
f 41/5/1 42/7/1 43/8/1 44/6/1
f 45/21/1 46/22/1 47/14/1 48/13/1
f 49/22/1 50/23/1 51/15/1 52/14/1
f 53/23/1 54/24/1 55/16/1 56/15/1
f 57/25/1 58/26/1 59/27/1 60/28/1
f 61/13/1 62/14/1 63/2/1 64/1/1
f 65/14/1 66/15/1 67/5/1 68/2/1
f 69/15/1 70/16/1 71/7/1 72/5/1
f 73/29/1 74/30/1 75/31/1 76/32/1
f 77/33/1 78/34/1 79/22/1 80/21/1
f 81/34/1 82/35/1 83/23/1 84/22/1
f 85/35/1 86/36/1 87/24/1 88/23/1
f 89/21/1 90/22/1 91/14/1 92/13/1
f 93/22/1 94/23/1 95/15/1 96/14/1
f 97/23/1 98/24/1 99/16/1 100/15/1
f 101/33/1 102/34/1 103/22/1 104/21/1
f 105/34/1 106/35/1 107/23/1 108/22/1
f 109/35/1 110/36/1 111/24/1 112/23/1
f 113/18/1 114/37/1 115/38/1 116/19/1
f 117/1/1 118/2/1 119/3/1 120/4/1
f 121/2/1 122/5/1 123/6/1 124/3/1
f 125/5/1 126/7/1 127/8/1 128/6/1
f 129/13/1 130/14/1 131/2/1 132/1/1
f 133/14/1 134/15/1 135/5/1 136/2/1
f 137/15/1 138/16/1 139/7/1 140/5/1
f 141/34/1 142/35/1 143/23/1 144/22/1
f 145/18/1 146/37/1 147/38/1 148/19/1
f 149/7/1 150/39/1 151/40/1 152/8/1
f 153/39/1 154/41/1 155/42/1 156/40/1
f 157/21/1 158/22/1 159/14/1 160/13/1
f 161/22/1 162/23/1 163/15/1 164/14/1
f 165/23/1 166/24/1 167/16/1 168/15/1
f 169/43/1 170/44/1 171/45/1 172/46/1
f 173/16/1 174/47/1 175/39/1 176/7/1
f 177/47/1 178/48/1 179/41/1 180/39/1
f 181/33/1 182/34/1 183/22/1 184/21/1
f 185/34/1 186/35/1 187/23/1 188/22/1
f 189/35/1 190/36/1 191/24/1 192/23/1
f 193/49/1 194/50/1 195/34/1 196/33/1
f 197/50/1 198/51/1 199/35/1 200/34/1
f 201/51/1 202/52/1 203/36/1 204/35/1
f 205/24/1 206/53/1 207/47/1 208/16/1
f 209/53/1 210/54/1 211/48/1 212/47/1
f 213/55/1 214/56/1 215/50/1 216/49/1
f 217/56/1 218/57/1 219/51/1 220/50/1
f 221/57/1 222/58/1 223/52/1 224/51/1
f 225/49/1 226/50/1 227/34/1 228/33/1
f 229/50/1 230/51/1 231/35/1 232/34/1
f 233/51/1 234/52/1 235/36/1 236/35/1
f 237/36/1 238/59/1 239/53/1 240/24/1
f 241/59/1 242/60/1 243/54/1 244/53/1
f 245/61/1 246/62/1 247/56/1 248/55/1
f 249/62/1 250/63/1 251/57/1 252/56/1
f 253/63/1 254/64/1 255/58/1 256/57/1
f 257/55/1 258/56/1 259/50/1 260/49/1
f 261/56/1 262/57/1 263/51/1 264/50/1
f 265/57/1 266/58/1 267/52/1 268/51/1

